<svg xmlns="http://www.w3.org/2000/svg" viewBox="0 0 24 24">
  <g fill="#6EC6C5">
    <path d="M7.5 3.5c1.2-.9 2.9-.7 3.8.5.9 1.2.7 2.9-.5 3.8-1.2.9-2.9.7-3.8-.5-.9-1.2-.7-2.9.5-3.8z"/>
    <path d="M4.1 8.6c1-.8 2.5-.6 3.3.4.8 1 0 2.4-1.1 3.2-1 .8-2.5.6-3.3-.4-.8-1-.1-2.4 1.1-3.2z"/>
    <path d="M14.5 3.8c1.2-.9 2.9-.7 3.8.5.9 1.2.7 2.9-.5 3.8-1.2.9-2.9.7-3.8-.5-.9-1.2-.7-2.9.5-3.8z"/>
    <path d="M19.9 8.6c1-.8 2.5-.6 3.3.4.8 1 0 2.4-1.1 3.2-1 .8-2.5.6-3.3-.4-.8-1-.1-2.4 1.1-3.2z"/>
    <path d="M12 9c2.8 0 6 2.1 6 4.8 0 3.6-4 6.2-6 6.2s-6-2.6-6-6.2C6 11.1 9.2 9 12 9z"/>
  </g>
</svg>
